<mxfile host="app.diagrams.net" modified="2023-01-05T17:36:25.754Z" agent="5.0 (Windows)" version="20.7.4" etag="rYmdJMVfTLk34q2z-ryg" type="github">
  <diagram id="cPP8uyDvMr9w4AtACVv2" name="Page-1">
    <mxGraphModel dx="2284" dy="788" grid="0" gridSize="10" guides="1" tooltips="1" connect="1" arrows="1" fold="1" page="1" pageScale="1" pageWidth="850" pageHeight="1100" math="0" shadow="0">
      <root>
        <mxCell id="0" />
        <mxCell id="1" parent="0" />
        <mxCell id="47PZhOhdp5GFQi7_rv8r-1" value="" style="ellipse;whiteSpace=wrap;html=1;" vertex="1" parent="1">
          <mxGeometry x="29" y="92" width="83" height="39" as="geometry" />
        </mxCell>
        <mxCell id="47PZhOhdp5GFQi7_rv8r-2" value="HCO_001" style="text;html=1;strokeColor=none;fillColor=none;align=center;verticalAlign=middle;whiteSpace=wrap;rounded=0;" vertex="1" parent="1">
          <mxGeometry x="44" y="96.5" width="60" height="30" as="geometry" />
        </mxCell>
        <mxCell id="47PZhOhdp5GFQi7_rv8r-3" value="" style="endArrow=classic;html=1;rounded=0;" edge="1" parent="1">
          <mxGeometry width="50" height="50" relative="1" as="geometry">
            <mxPoint x="72" y="131" as="sourcePoint" />
            <mxPoint x="105" y="204" as="targetPoint" />
          </mxGeometry>
        </mxCell>
        <mxCell id="47PZhOhdp5GFQi7_rv8r-4" value="" style="endArrow=classic;html=1;rounded=0;" edge="1" parent="1">
          <mxGeometry x="0.2474" y="26" width="50" height="50" relative="1" as="geometry">
            <mxPoint x="67" y="131" as="sourcePoint" />
            <mxPoint x="35" y="206" as="targetPoint" />
            <mxPoint as="offset" />
          </mxGeometry>
        </mxCell>
        <mxCell id="47PZhOhdp5GFQi7_rv8r-7" value="" style="ellipse;whiteSpace=wrap;html=1;" vertex="1" parent="1">
          <mxGeometry x="2" y="208" width="62" height="35" as="geometry" />
        </mxCell>
        <mxCell id="47PZhOhdp5GFQi7_rv8r-8" value="" style="ellipse;whiteSpace=wrap;html=1;" vertex="1" parent="1">
          <mxGeometry x="81" y="205" width="62" height="35" as="geometry" />
        </mxCell>
        <mxCell id="47PZhOhdp5GFQi7_rv8r-46" style="edgeStyle=orthogonalEdgeStyle;rounded=0;orthogonalLoop=1;jettySize=auto;html=1;fontSize=14;fontColor=#000000;" edge="1" parent="1">
          <mxGeometry relative="1" as="geometry">
            <mxPoint x="33" y="247" as="sourcePoint" />
            <mxPoint x="655" y="199" as="targetPoint" />
            <Array as="points">
              <mxPoint x="33" y="310" />
              <mxPoint x="590" y="310" />
              <mxPoint x="590" y="230" />
              <mxPoint x="655" y="230" />
            </Array>
          </mxGeometry>
        </mxCell>
        <mxCell id="47PZhOhdp5GFQi7_rv8r-70" style="edgeStyle=orthogonalEdgeStyle;rounded=0;orthogonalLoop=1;jettySize=auto;html=1;exitX=0;exitY=0.5;exitDx=0;exitDy=0;fontSize=12;fontColor=#ff0000;" edge="1" parent="1" source="47PZhOhdp5GFQi7_rv8r-9">
          <mxGeometry relative="1" as="geometry">
            <mxPoint x="596" y="544" as="targetPoint" />
          </mxGeometry>
        </mxCell>
        <mxCell id="47PZhOhdp5GFQi7_rv8r-9" value="MR_001" style="text;html=1;strokeColor=none;fillColor=none;align=center;verticalAlign=middle;whiteSpace=wrap;rounded=0;" vertex="1" parent="1">
          <mxGeometry x="6" y="206" width="54" height="33" as="geometry" />
        </mxCell>
        <mxCell id="47PZhOhdp5GFQi7_rv8r-10" value="DM_001" style="text;html=1;strokeColor=none;fillColor=none;align=center;verticalAlign=middle;whiteSpace=wrap;rounded=0;" vertex="1" parent="1">
          <mxGeometry x="86" y="205" width="57" height="32" as="geometry" />
        </mxCell>
        <mxCell id="47PZhOhdp5GFQi7_rv8r-13" value="" style="html=1;verticalLabelPosition=bottom;align=center;labelBackgroundColor=#ffffff;verticalAlign=top;strokeWidth=2;strokeColor=#0080F0;shadow=0;dashed=0;shape=mxgraph.ios7.icons.mail;" vertex="1" parent="1">
          <mxGeometry x="51" y="53" width="30" height="16.5" as="geometry" />
        </mxCell>
        <mxCell id="47PZhOhdp5GFQi7_rv8r-14" value="&lt;font style=&quot;font-size: 14px;&quot;&gt;Initial&lt;/font&gt;" style="text;html=1;align=center;verticalAlign=middle;resizable=0;points=[];autosize=1;strokeColor=none;fillColor=none;" vertex="1" parent="1">
          <mxGeometry x="3" y="47.25" width="50" height="29" as="geometry" />
        </mxCell>
        <mxCell id="47PZhOhdp5GFQi7_rv8r-15" value="SENT on &lt;b&gt;&lt;font color=&quot;#008000&quot;&gt;JAN-05-2023&lt;/font&gt;&lt;/b&gt;" style="text;html=1;strokeColor=none;fillColor=none;align=center;verticalAlign=middle;whiteSpace=wrap;rounded=0;fontSize=14;" vertex="1" parent="1">
          <mxGeometry x="81" y="47.25" width="152" height="30" as="geometry" />
        </mxCell>
        <mxCell id="47PZhOhdp5GFQi7_rv8r-23" value="" style="rounded=0;whiteSpace=wrap;html=1;fontSize=14;" vertex="1" parent="1">
          <mxGeometry x="304" y="47.25" width="120" height="36" as="geometry" />
        </mxCell>
        <mxCell id="47PZhOhdp5GFQi7_rv8r-25" style="edgeStyle=orthogonalEdgeStyle;rounded=0;orthogonalLoop=1;jettySize=auto;html=1;exitX=0.5;exitY=0;exitDx=0;exitDy=0;fontSize=14;" edge="1" parent="1" source="47PZhOhdp5GFQi7_rv8r-24">
          <mxGeometry relative="1" as="geometry">
            <mxPoint x="358" y="45" as="targetPoint" />
          </mxGeometry>
        </mxCell>
        <mxCell id="47PZhOhdp5GFQi7_rv8r-24" value="During 14 days" style="text;html=1;strokeColor=none;fillColor=none;align=center;verticalAlign=middle;whiteSpace=wrap;rounded=0;fontSize=14;" vertex="1" parent="1">
          <mxGeometry x="292" y="50.25" width="144" height="30" as="geometry" />
        </mxCell>
        <mxCell id="47PZhOhdp5GFQi7_rv8r-26" value="" style="ellipse;whiteSpace=wrap;html=1;fontSize=14;" vertex="1" parent="1">
          <mxGeometry x="321" y="96.5" width="79" height="38" as="geometry" />
        </mxCell>
        <mxCell id="47PZhOhdp5GFQi7_rv8r-27" value="HCO_001" style="text;html=1;strokeColor=none;fillColor=none;align=center;verticalAlign=middle;whiteSpace=wrap;rounded=0;fontSize=14;" vertex="1" parent="1">
          <mxGeometry x="331.5" y="100.5" width="57.5" height="26.5" as="geometry" />
        </mxCell>
        <mxCell id="47PZhOhdp5GFQi7_rv8r-28" value="" style="endArrow=classic;html=1;rounded=0;" edge="1" parent="1">
          <mxGeometry x="1" y="254" width="50" height="50" relative="1" as="geometry">
            <mxPoint x="362.25" y="134.5" as="sourcePoint" />
            <mxPoint x="395.25" y="207.5" as="targetPoint" />
            <mxPoint x="17" y="51" as="offset" />
          </mxGeometry>
        </mxCell>
        <mxCell id="47PZhOhdp5GFQi7_rv8r-29" value="" style="endArrow=classic;html=1;rounded=0;" edge="1" parent="1">
          <mxGeometry x="0.2474" y="26" width="50" height="50" relative="1" as="geometry">
            <mxPoint x="357.25" y="134.5" as="sourcePoint" />
            <mxPoint x="325.25" y="209.5" as="targetPoint" />
            <mxPoint as="offset" />
          </mxGeometry>
        </mxCell>
        <mxCell id="47PZhOhdp5GFQi7_rv8r-30" value="" style="ellipse;whiteSpace=wrap;html=1;fontSize=14;" vertex="1" parent="1">
          <mxGeometry x="283" y="210" width="71" height="40" as="geometry" />
        </mxCell>
        <mxCell id="47PZhOhdp5GFQi7_rv8r-31" value="" style="ellipse;whiteSpace=wrap;html=1;fontSize=14;" vertex="1" parent="1">
          <mxGeometry x="373" y="209" width="69" height="42" as="geometry" />
        </mxCell>
        <mxCell id="47PZhOhdp5GFQi7_rv8r-34" value="MR_002" style="text;html=1;strokeColor=none;fillColor=none;align=center;verticalAlign=middle;whiteSpace=wrap;rounded=0;fontColor=#ff0000;" vertex="1" parent="1">
          <mxGeometry x="292" y="213.5" width="54" height="33" as="geometry" />
        </mxCell>
        <mxCell id="47PZhOhdp5GFQi7_rv8r-35" value="DM_002" style="text;html=1;strokeColor=none;fillColor=none;align=center;verticalAlign=middle;whiteSpace=wrap;rounded=0;fontColor=#ff0000;" vertex="1" parent="1">
          <mxGeometry x="379" y="214.5" width="57" height="32" as="geometry" />
        </mxCell>
        <mxCell id="47PZhOhdp5GFQi7_rv8r-47" value="AFTER 14 DAYS the follow-up will be sent to DM" style="text;html=1;strokeColor=none;fillColor=none;align=center;verticalAlign=middle;whiteSpace=wrap;rounded=0;fontSize=14;fontColor=#0000FF;" vertex="1" parent="1">
          <mxGeometry x="219" y="318" width="344" height="30" as="geometry" />
        </mxCell>
        <mxCell id="47PZhOhdp5GFQi7_rv8r-65" value="Employee_ID" style="rounded=0;whiteSpace=wrap;html=1;fontSize=14;fontColor=#000000;" vertex="1" parent="1">
          <mxGeometry x="498" y="138.37" width="108" height="28.75" as="geometry" />
        </mxCell>
        <mxCell id="47PZhOhdp5GFQi7_rv8r-66" value="Manger_ID" style="rounded=0;whiteSpace=wrap;html=1;fontSize=14;fontColor=#000000;" vertex="1" parent="1">
          <mxGeometry x="606" y="138" width="108" height="28.75" as="geometry" />
        </mxCell>
        <mxCell id="47PZhOhdp5GFQi7_rv8r-67" value="&lt;font style=&quot;font-size: 12px;&quot;&gt;MR_001&lt;/font&gt;" style="rounded=0;whiteSpace=wrap;html=1;fontSize=14;fontColor=#000000;" vertex="1" parent="1">
          <mxGeometry x="498" y="167.12" width="108" height="28.75" as="geometry" />
        </mxCell>
        <mxCell id="47PZhOhdp5GFQi7_rv8r-87" style="edgeStyle=orthogonalEdgeStyle;rounded=0;orthogonalLoop=1;jettySize=auto;html=1;exitX=1;exitY=0.5;exitDx=0;exitDy=0;fontSize=12;fontColor=#ff8000;" edge="1" parent="1" source="47PZhOhdp5GFQi7_rv8r-68">
          <mxGeometry relative="1" as="geometry">
            <mxPoint x="750" y="181" as="targetPoint" />
          </mxGeometry>
        </mxCell>
        <mxCell id="47PZhOhdp5GFQi7_rv8r-68" value="&lt;font style=&quot;font-size: 12px;&quot; color=&quot;#ff0000&quot;&gt;DM_003&lt;/font&gt;" style="rounded=0;whiteSpace=wrap;html=1;fontSize=14;fontColor=#000000;" vertex="1" parent="1">
          <mxGeometry x="606" y="167.12" width="108" height="28.75" as="geometry" />
        </mxCell>
        <mxCell id="47PZhOhdp5GFQi7_rv8r-69" value="&lt;b&gt;&lt;font color=&quot;#800000&quot;&gt;Employee Table&lt;/font&gt;&lt;/b&gt;" style="text;html=1;strokeColor=none;fillColor=none;align=center;verticalAlign=middle;whiteSpace=wrap;rounded=0;fontSize=14;fontColor=#ff0000;" vertex="1" parent="1">
          <mxGeometry x="554" y="98.75" width="112" height="30" as="geometry" />
        </mxCell>
        <mxCell id="47PZhOhdp5GFQi7_rv8r-73" value="&lt;b&gt;Scenario 1 &lt;br&gt;&lt;/b&gt;" style="text;html=1;strokeColor=none;fillColor=none;align=center;verticalAlign=middle;whiteSpace=wrap;rounded=0;fontSize=12;fontColor=#ff8000;" vertex="1" parent="1">
          <mxGeometry x="117" y="274" width="84" height="30" as="geometry" />
        </mxCell>
        <mxCell id="47PZhOhdp5GFQi7_rv8r-74" value="" style="shape=flexArrow;endArrow=classic;html=1;rounded=0;fontSize=12;fontColor=#ff8000;" edge="1" parent="1">
          <mxGeometry width="50" height="50" relative="1" as="geometry">
            <mxPoint x="198" y="288.5" as="sourcePoint" />
            <mxPoint x="236" y="288.5" as="targetPoint" />
          </mxGeometry>
        </mxCell>
        <mxCell id="47PZhOhdp5GFQi7_rv8r-75" value="MR assignment change" style="text;html=1;strokeColor=none;fillColor=none;align=center;verticalAlign=middle;whiteSpace=wrap;rounded=0;fontSize=12;fontColor=#ff8000;" vertex="1" parent="1">
          <mxGeometry x="248.5" y="272" width="140" height="30" as="geometry" />
        </mxCell>
        <mxCell id="47PZhOhdp5GFQi7_rv8r-77" value="&lt;b&gt;Scenario 2&lt;br&gt;&lt;/b&gt;" style="text;html=1;strokeColor=none;fillColor=none;align=center;verticalAlign=middle;whiteSpace=wrap;rounded=0;fontSize=12;fontColor=#ff8000;" vertex="1" parent="1">
          <mxGeometry x="112" y="414" width="84" height="30" as="geometry" />
        </mxCell>
        <mxCell id="47PZhOhdp5GFQi7_rv8r-78" value="MR has left the organization" style="text;html=1;strokeColor=none;fillColor=none;align=center;verticalAlign=middle;whiteSpace=wrap;rounded=0;fontSize=12;fontColor=#ff8000;" vertex="1" parent="1">
          <mxGeometry x="243.5" y="412" width="187.5" height="30" as="geometry" />
        </mxCell>
        <mxCell id="47PZhOhdp5GFQi7_rv8r-80" value="" style="shape=flexArrow;endArrow=classic;html=1;rounded=0;fontSize=12;fontColor=#ff8000;" edge="1" parent="1">
          <mxGeometry width="50" height="50" relative="1" as="geometry">
            <mxPoint x="201" y="428.5" as="sourcePoint" />
            <mxPoint x="237" y="428.5" as="targetPoint" />
          </mxGeometry>
        </mxCell>
        <mxCell id="47PZhOhdp5GFQi7_rv8r-81" value="Employee_ID" style="rounded=0;whiteSpace=wrap;html=1;fontSize=14;fontColor=#000000;" vertex="1" parent="1">
          <mxGeometry x="490" y="578.37" width="108" height="28.75" as="geometry" />
        </mxCell>
        <mxCell id="47PZhOhdp5GFQi7_rv8r-82" value="Manger_ID" style="rounded=0;whiteSpace=wrap;html=1;fontSize=14;fontColor=#000000;" vertex="1" parent="1">
          <mxGeometry x="598" y="578" width="108" height="28.75" as="geometry" />
        </mxCell>
        <mxCell id="47PZhOhdp5GFQi7_rv8r-83" value="" style="rounded=0;whiteSpace=wrap;html=1;fontSize=14;fontColor=#000000;" vertex="1" parent="1">
          <mxGeometry x="490" y="607.12" width="108" height="28.75" as="geometry" />
        </mxCell>
        <mxCell id="47PZhOhdp5GFQi7_rv8r-84" value="" style="rounded=0;whiteSpace=wrap;html=1;fontSize=14;fontColor=#000000;" vertex="1" parent="1">
          <mxGeometry x="598" y="607.12" width="108" height="28.75" as="geometry" />
        </mxCell>
        <mxCell id="47PZhOhdp5GFQi7_rv8r-86" value="&lt;font color=&quot;#ff0000&quot;&gt;No record found for MR&lt;/font&gt;. &lt;font color=&quot;#FF0000&quot;&gt;Hence no email will be sent&lt;/font&gt;" style="text;html=1;align=center;verticalAlign=middle;resizable=0;points=[];autosize=1;strokeColor=none;fillColor=none;fontSize=12;fontColor=#ff8000;" vertex="1" parent="1">
          <mxGeometry x="438" y="639" width="302" height="26" as="geometry" />
        </mxCell>
        <mxCell id="47PZhOhdp5GFQi7_rv8r-88" value="" style="html=1;verticalLabelPosition=bottom;align=center;labelBackgroundColor=#ffffff;verticalAlign=top;strokeWidth=2;strokeColor=#0080F0;shadow=0;dashed=0;shape=mxgraph.ios7.icons.mail;fontSize=12;fontColor=#ff8000;" vertex="1" parent="1">
          <mxGeometry x="759" y="170.25" width="30" height="22.5" as="geometry" />
        </mxCell>
        <mxCell id="47PZhOhdp5GFQi7_rv8r-89" value="&lt;b&gt;&lt;font color=&quot;#800000&quot;&gt;Employee Table&lt;/font&gt;&lt;/b&gt;" style="text;html=1;strokeColor=none;fillColor=none;align=center;verticalAlign=middle;whiteSpace=wrap;rounded=0;fontSize=14;fontColor=#ff0000;" vertex="1" parent="1">
          <mxGeometry x="539" y="548" width="112" height="30" as="geometry" />
        </mxCell>
      </root>
    </mxGraphModel>
  </diagram>
</mxfile>
